<svg xmlns="http://www.w3.org/2000/svg" width="256" height="256"><path fill-opacity=".016" d="M0 128.004v128.004l128.25-.254 128.25-.254.254-127.75L257.008 0H0v128.004m.485.496c0 70.4.119 99.053.265 63.672.146-35.38.146-92.98 0-128C.604 29.153.485 58.1.485 128.5" fill="#1976D2" fill-rule="evenodd"/><path fill-opacity=".127" d="M120.299 7.96c-3.843 2.342-5.351 5.098-9.387 17.143C103.143 48.292 94.049 65.088 71.983 97 49.911 128.921 44 143.307 44 165.108c0 37.846 24.301 70.513 61.035 82.048 6.487 2.037 9.496 2.344 22.965 2.344 17.385 0 24.023-1.45 37.5-8.193 22.938-11.476 39.899-33.78 45.05-59.241 2.05-10.136 1.529-29.143-1.057-38.566-3.046-11.095-10.041-23.864-26.02-47.5-22.726-33.614-30.791-48.634-38.607-71.899-2.108-6.273-4.626-12.283-5.597-13.356-4.516-4.991-13.25-6.273-18.97-2.785M77.073 161.635c-2.432 3.091-2.56 6.402-.606 15.622 4.071 19.215 19.605 35.234 38.993 40.213 12.468 3.201 19.54 1.291 19.54-5.279 0-4.867-1.919-6.232-10.965-7.802-19.554-3.394-32.028-16.108-34.072-34.727-.606-5.52-1.268-7.49-2.982-8.878-3.259-2.639-7.446-2.28-9.908.851" fill="#1976D2" fill-rule="evenodd"/><path fill-opacity=".416" d="M122.5 7.412c-4.872 2.165-6.981 5.462-10.933 17.088-8.517 25.056-15.519 37.71-44.544 80.5-17.385 25.629-22.304 38.994-22.269 60.5.026 15.674 2.074 24.573 8.747 38 13.262 26.688 39.78 44.301 69.499 46.158 45.928 2.87 85.381-32.291 88.602-78.964 1.5-21.74-4.463-39.239-22.311-65.475-21.645-31.815-25.915-38.707-33.287-53.719-4.322-8.8-9.497-20.95-11.501-27-3.85-11.626-5.997-14.903-11.221-17.129-3.981-1.696-6.899-1.685-10.782.041M77 161c-2.495 2.495-2.684 9.953-.469 18.458 5.844 22.438 27.006 39.487 49.064 39.53 6.634.013 8.692-1.255 9.9-6.097.485-1.945.033-3.329-1.778-5.433-2.03-2.36-3.486-2.934-8.861-3.49-18.191-1.883-32.497-16.038-34.7-34.335-.489-4.063-1.493-7.348-2.629-8.603-2.419-2.673-7.869-2.688-10.527-.03" fill="#1976D2" fill-rule="evenodd"/><path fill-opacity=".406" d="M119.898 9.288c-2.986 2.01-3.968 3.919-8.101 15.75-7.571 21.671-16.731 38.796-36.484 68.204-24.896 37.066-28.997 46.403-30.011 68.324-1.147 24.806 6.44 45.002 23.572 62.749 16.082 16.658 35.285 24.671 59.126 24.671 23.697 0 42.636-7.813 58.891-24.294 9.969-10.106 16.658-21.254 21.118-35.192 3.42-10.689 3.977-32.115 1.131-43.556-3.101-12.47-11.366-28.089-26.166-49.444-21.251-30.665-29.902-46.65-38.76-71.62-4.123-11.621-5.15-13.594-8.115-15.592-4.611-3.107-11.586-3.107-16.201 0M76.923 160.923c-3.365 3.365-3.552 5.417-1.419 15.577 4.649 22.139 22.588 39.24 44.755 42.663 6.787 1.048 8.194.991 11.224-.454 3.886-1.853 5.348-5.443 3.897-9.568-1.154-3.283-4.188-4.716-12.628-5.963-17.522-2.59-28.808-14.252-32.069-33.135-1.105-6.403-1.995-8.877-3.681-10.243-3.233-2.617-6.728-2.228-10.079 1.123" fill="#1976D2" fill-rule="evenodd"/></svg>